<svg id="svg" version="1.1" xmlns="http://www.w3.org/2000/svg" xmlns:xlink="http://www.w3.org/1999/xlink" width="400" height="400" viewBox="0, 0, 400,400"><g id="svgg"><path id="path0" d="M141.699 123.697 L 141.800 181.800 155.175 181.905 C 162.530 181.964,168.677 181.874,168.834 181.705 C 169.108 181.413,168.902 174.470,168.015 154.000 C 167.791 148.830,167.424 140.280,167.199 135.000 C 166.975 129.720,166.612 121.260,166.393 116.200 C 166.174 111.140,165.879 104.165,165.738 100.700 L 165.481 94.400 169.153 94.400 C 173.374 94.400,173.029 94.044,173.608 99.000 C 174.141 103.563,174.750 108.610,175.200 112.200 C 175.393 113.740,175.742 116.575,175.976 118.500 C 176.209 120.425,176.591 123.575,176.824 125.500 C 177.058 127.425,177.407 130.260,177.600 131.800 C 177.793 133.340,178.136 136.130,178.361 138.000 C 178.587 139.870,178.964 142.930,179.200 144.800 C 179.436 146.670,179.813 149.730,180.039 151.600 C 180.264 153.470,180.607 156.260,180.800 157.800 C 181.414 162.696,182.729 173.586,183.191 177.600 C 183.756 182.510,181.940 182.000,198.843 182.000 L 213.600 182.000 213.600 180.524 C 213.600 179.712,213.425 178.047,213.212 176.824 C 212.999 175.601,212.632 173.250,212.397 171.600 C 212.162 169.950,211.808 167.520,211.610 166.200 C 211.413 164.880,211.049 162.360,210.802 160.600 C 210.555 158.840,210.194 156.320,210.000 155.000 C 209.806 153.680,209.448 151.160,209.203 149.400 C 208.645 145.380,208.179 142.663,207.352 138.600 C 206.993 136.840,206.527 134.500,206.315 133.400 C 205.648 129.939,205.318 128.319,204.400 124.000 C 203.909 121.690,203.365 119.080,203.191 118.200 C 203.016 117.320,202.661 115.520,202.400 114.200 C 202.139 112.880,201.784 111.080,201.609 110.200 C 201.435 109.320,200.891 106.710,200.400 104.400 C 199.532 100.318,199.349 99.420,198.442 94.800 C 198.205 93.590,197.646 90.890,197.200 88.800 C 196.754 86.710,196.195 84.010,195.958 82.800 C 195.720 81.590,195.379 79.880,195.200 79.000 C 195.021 78.120,194.679 76.410,194.440 75.200 C 194.201 73.990,193.678 71.380,193.278 69.400 L 192.550 65.800 167.074 65.697 L 141.597 65.594 141.699 123.697 M226.611 65.982 C 226.482 66.191,226.471 66.776,226.587 67.282 C 226.703 67.787,226.985 76.300,227.214 86.200 C 227.646 104.925,228.153 125.109,228.793 149.000 C 229.223 165.080,229.898 180.249,230.230 181.294 C 230.443 181.967,231.296 182.004,244.329 181.905 L 258.200 181.800 258.301 123.700 L 258.403 65.600 242.625 65.600 C 233.045 65.600,226.755 65.750,226.611 65.982 M141.379 191.310 C 141.271 191.591,141.232 195.596,141.292 200.210 L 141.400 208.600 142.400 208.600 L 143.400 208.600 143.246 201.300 C 143.134 196.029,143.218 194.000,143.546 194.000 C 143.824 194.000,144.000 194.769,144.000 195.980 C 144.000 197.069,144.162 198.824,144.359 199.880 C 144.557 200.936,144.932 203.060,145.194 204.600 C 145.952 209.061,145.817 208.857,147.933 208.721 L 149.800 208.600 149.800 199.800 L 149.800 191.000 148.800 191.000 L 147.800 191.000 147.950 198.355 C 148.100 205.700,147.607 208.090,147.052 202.711 C 146.600 198.334,145.491 191.994,145.053 191.285 C 144.651 190.635,141.630 190.656,141.379 191.310 M162.053 193.500 C 161.823 194.985,161.437 197.820,161.197 199.800 C 160.956 201.780,160.607 204.480,160.421 205.800 C 160.235 207.120,160.224 208.350,160.395 208.534 C 160.889 209.061,162.584 208.663,162.669 208.000 C 163.104 204.631,163.213 204.400,164.362 204.400 C 165.408 204.400,165.513 204.549,165.844 206.500 C 166.175 208.453,168.348 209.889,168.416 208.200 C 168.440 207.623,168.039 203.848,167.610 200.600 C 167.407 199.060,167.033 196.225,166.779 194.300 L 166.317 190.800 164.395 190.800 L 162.473 190.800 162.053 193.500 M178.685 191.048 C 178.528 191.205,178.400 195.263,178.400 200.067 L 178.400 208.800 179.600 208.800 L 180.800 208.800 180.806 202.100 C 180.810 197.626,180.941 195.599,181.200 196.000 C 181.413 196.330,181.594 197.410,181.601 198.400 C 181.614 200.152,182.508 206.072,183.040 207.921 C 183.546 209.682,186.113 208.999,186.503 207.000 C 187.115 203.873,187.612 200.154,187.854 196.900 C 188.309 190.804,188.841 193.391,188.719 201.100 L 188.600 208.600 189.708 208.727 L 190.815 208.855 190.708 199.927 L 190.600 191.000 188.696 190.878 C 187.388 190.794,186.745 190.919,186.643 191.278 C 186.334 192.358,185.618 197.144,185.167 201.142 C 184.634 205.865,184.016 205.909,184.006 201.224 C 184.001 198.535,183.615 195.525,182.850 192.200 C 182.575 191.006,179.561 190.172,178.685 191.048 M201.600 199.800 L 201.600 208.834 204.696 208.717 C 208.905 208.558,209.648 206.423,205.500 206.406 L 204.000 206.400 204.000 203.623 L 204.000 200.846 205.700 200.723 C 208.284 200.536,208.269 198.663,205.682 198.476 L 203.965 198.352 204.082 195.676 L 204.200 193.000 206.125 192.877 C 209.789 192.643,208.638 191.032,204.700 190.883 L 201.600 190.766 201.600 199.800 M218.196 191.265 C 218.079 191.571,218.032 195.596,218.092 200.210 L 218.200 208.600 220.824 208.717 C 223.153 208.820,223.568 208.721,224.524 207.836 L 225.600 206.838 225.600 199.863 C 225.600 191.215,225.551 191.114,221.253 190.871 C 219.084 190.748,218.359 190.842,218.196 191.265 M236.194 191.700 C 236.073 192.195,236.024 196.200,236.087 200.600 L 236.200 208.600 239.306 208.717 C 241.821 208.812,242.458 208.715,242.651 208.212 C 243.040 207.198,242.027 206.400,240.351 206.400 L 238.800 206.400 238.800 199.233 C 238.800 195.291,238.691 191.781,238.557 191.433 C 238.176 190.439,236.456 190.634,236.194 191.700 M252.800 199.800 L 252.800 208.834 255.896 208.717 C 260.105 208.558,260.848 206.423,256.700 206.406 L 255.200 206.400 255.200 203.623 L 255.200 200.846 256.900 200.723 C 259.484 200.536,259.469 198.663,256.882 198.476 L 255.165 198.352 255.282 195.676 L 255.400 193.000 257.325 192.877 C 260.989 192.643,259.838 191.032,255.900 190.883 L 252.800 190.766 252.800 199.800 M222.762 193.354 C 223.075 193.732,223.186 195.862,223.111 200.054 L 223.000 206.200 221.800 206.200 L 220.600 206.200 220.485 200.400 C 220.338 192.974,220.929 191.146,222.762 193.354 M164.803 194.900 C 164.804 195.835,164.922 197.831,165.064 199.336 C 165.321 202.055,165.316 202.071,164.361 201.936 C 163.283 201.783,163.304 201.965,163.766 196.900 C 164.109 193.136,164.798 191.808,164.803 194.900 M141.867 218.267 C 141.720 218.413,141.600 238.663,141.600 263.267 L 141.600 308.000 157.400 308.000 L 173.200 308.000 173.187 306.300 C 173.173 304.520,172.652 285.422,172.007 263.000 C 171.798 255.740,171.442 242.972,171.217 234.627 C 170.992 226.282,170.704 219.127,170.577 218.727 C 170.341 217.983,142.595 217.538,141.867 218.267 M188.599 218.402 C 188.212 219.028,188.905 224.686,189.994 229.800 C 190.182 230.680,190.544 232.480,190.800 233.800 C 191.056 235.120,191.416 236.920,191.600 237.800 C 192.080 240.093,192.642 242.954,193.995 250.000 C 194.650 253.410,195.352 257.010,195.555 258.000 C 195.757 258.990,196.135 260.880,196.394 262.200 C 196.653 263.520,197.016 265.320,197.200 266.200 C 197.384 267.080,197.744 268.880,198.000 270.200 C 198.256 271.520,198.616 273.320,198.800 274.200 C 199.262 276.407,199.806 279.171,201.200 286.400 C 202.594 293.629,203.138 296.393,203.600 298.600 C 203.784 299.480,204.142 301.280,204.396 302.600 C 204.649 303.920,205.031 305.675,205.244 306.500 L 205.632 308.000 232.018 308.000 L 258.403 308.000 258.302 263.100 L 258.200 218.200 245.200 218.200 L 232.200 218.200 232.209 222.200 C 232.214 224.400,232.452 230.700,232.736 236.200 C 234.073 262.005,234.760 278.140,234.538 278.500 C 234.436 278.665,232.936 278.800,231.203 278.800 C 227.578 278.800,227.833 279.092,227.175 274.190 C 226.939 272.435,226.590 269.920,226.400 268.600 C 226.210 267.280,225.850 264.760,225.600 263.000 C 225.350 261.240,224.971 258.630,224.757 257.200 C 224.544 255.770,224.196 253.385,223.984 251.900 C 223.773 250.415,223.427 247.985,223.216 246.500 C 223.004 245.015,222.656 242.630,222.443 241.200 C 222.229 239.770,221.850 237.160,221.600 235.400 C 221.350 233.640,220.990 231.120,220.799 229.800 C 220.609 228.480,220.254 225.960,220.011 224.200 C 219.769 222.440,219.435 220.370,219.269 219.600 L 218.967 218.200 203.910 218.095 C 193.906 218.026,188.768 218.129,188.599 218.402 " stroke="none" fill="#054cac" fill-rule="evenodd"></path><path id="path1" d="M0.000 200.000 L 0.000 400.000 200.000 400.000 L 400.000 400.000 400.000 200.000 L 400.000 0.000 200.000 0.000 L 0.000 0.000 0.000 200.000 M193.278 69.400 C 193.678 71.380,194.201 73.990,194.440 75.200 C 194.679 76.410,195.021 78.120,195.200 79.000 C 195.379 79.880,195.720 81.590,195.958 82.800 C 196.195 84.010,196.754 86.710,197.200 88.800 C 197.646 90.890,198.205 93.590,198.442 94.800 C 199.349 99.420,199.532 100.318,200.400 104.400 C 200.891 106.710,201.435 109.320,201.609 110.200 C 201.784 111.080,202.139 112.880,202.400 114.200 C 202.661 115.520,203.016 117.320,203.191 118.200 C 203.365 119.080,203.909 121.690,204.400 124.000 C 205.318 128.319,205.648 129.939,206.315 133.400 C 206.527 134.500,206.993 136.840,207.352 138.600 C 208.179 142.663,208.645 145.380,209.203 149.400 C 209.448 151.160,209.806 153.680,210.000 155.000 C 210.194 156.320,210.555 158.840,210.802 160.600 C 211.049 162.360,211.413 164.880,211.610 166.200 C 211.808 167.520,212.162 169.950,212.397 171.600 C 212.632 173.250,212.999 175.601,213.212 176.824 C 213.425 178.047,213.600 179.712,213.600 180.524 L 213.600 182.000 198.843 182.000 C 181.940 182.000,183.756 182.510,183.191 177.600 C 182.729 173.586,181.414 162.696,180.800 157.800 C 180.607 156.260,180.264 153.470,180.039 151.600 C 179.813 149.730,179.436 146.670,179.200 144.800 C 178.964 142.930,178.587 139.870,178.361 138.000 C 178.136 136.130,177.793 133.340,177.600 131.800 C 177.407 130.260,177.058 127.425,176.824 125.500 C 176.591 123.575,176.209 120.425,175.976 118.500 C 175.742 116.575,175.393 113.740,175.200 112.200 C 174.750 108.610,174.141 103.563,173.608 99.000 C 173.029 94.044,173.374 94.400,169.153 94.400 L 165.481 94.400 165.738 100.700 C 165.879 104.165,166.174 111.140,166.393 116.200 C 166.612 121.260,166.975 129.720,167.199 135.000 C 167.424 140.280,167.791 148.830,168.015 154.000 C 168.902 174.470,169.108 181.413,168.834 181.705 C 168.677 181.874,162.530 181.964,155.175 181.905 L 141.800 181.800 141.699 123.697 L 141.597 65.594 167.074 65.697 L 192.550 65.800 193.278 69.400 M258.301 123.700 L 258.200 181.800 244.329 181.905 C 231.296 182.004,230.443 181.967,230.230 181.294 C 229.898 180.249,229.223 165.080,228.793 149.000 C 228.153 125.109,227.646 104.925,227.214 86.200 C 226.985 76.300,226.703 67.787,226.587 67.282 C 226.203 65.616,226.358 65.600,242.625 65.600 L 258.403 65.600 258.301 123.700 M145.053 191.285 C 145.491 191.994,146.600 198.334,147.052 202.711 C 147.607 208.090,148.100 205.700,147.950 198.355 L 147.800 191.000 148.800 191.000 L 149.800 191.000 149.800 199.800 L 149.800 208.600 147.933 208.721 C 145.817 208.857,145.952 209.061,145.194 204.600 C 144.932 203.060,144.557 200.936,144.359 199.880 C 144.162 198.824,144.000 197.069,144.000 195.980 C 144.000 194.769,143.824 194.000,143.546 194.000 C 143.218 194.000,143.134 196.029,143.246 201.300 L 143.400 208.600 142.400 208.600 L 141.400 208.600 141.292 200.210 C 141.232 195.596,141.271 191.591,141.379 191.310 C 141.630 190.656,144.651 190.635,145.053 191.285 M166.779 194.300 C 167.033 196.225,167.407 199.060,167.610 200.600 C 168.039 203.848,168.440 207.623,168.416 208.200 C 168.348 209.889,166.175 208.453,165.844 206.500 C 165.513 204.549,165.408 204.400,164.362 204.400 C 163.213 204.400,163.104 204.631,162.669 208.000 C 162.584 208.663,160.889 209.061,160.395 208.534 C 160.224 208.350,160.235 207.120,160.421 205.800 C 160.607 204.480,160.956 201.780,161.197 199.800 C 161.437 197.820,161.823 194.985,162.053 193.500 L 162.473 190.800 164.395 190.800 L 166.317 190.800 166.779 194.300 M182.850 192.200 C 183.615 195.525,184.001 198.535,184.006 201.224 C 184.016 205.909,184.634 205.865,185.167 201.142 C 185.618 197.144,186.334 192.358,186.643 191.278 C 186.745 190.919,187.388 190.794,188.696 190.878 L 190.600 191.000 190.708 199.927 L 190.815 208.855 189.708 208.727 L 188.600 208.600 188.719 201.100 C 188.841 193.391,188.309 190.804,187.854 196.900 C 187.612 200.154,187.115 203.873,186.503 207.000 C 186.113 208.999,183.546 209.682,183.040 207.921 C 182.508 206.072,181.614 200.152,181.601 198.400 C 181.594 197.410,181.413 196.330,181.200 196.000 C 180.941 195.599,180.810 197.626,180.806 202.100 L 180.800 208.800 179.600 208.800 L 178.400 208.800 178.400 200.067 C 178.400 190.323,178.298 190.719,180.772 190.882 C 182.408 190.989,182.599 191.110,182.850 192.200 M207.925 191.877 C 208.037 192.662,207.848 192.767,206.125 192.877 L 204.200 193.000 204.082 195.676 L 203.965 198.352 205.682 198.476 C 208.269 198.663,208.284 200.536,205.700 200.723 L 204.000 200.846 204.000 203.623 L 204.000 206.400 205.500 206.406 C 209.648 206.423,208.905 208.558,204.696 208.717 L 201.600 208.834 201.600 199.800 L 201.600 190.766 204.700 190.883 C 207.544 190.990,207.810 191.072,207.925 191.877 M224.848 191.960 C 225.520 192.789,225.600 193.633,225.600 199.863 L 225.600 206.838 224.524 207.836 C 223.568 208.721,223.153 208.820,220.824 208.717 L 218.200 208.600 218.092 200.210 C 218.032 195.596,218.079 191.571,218.196 191.265 C 218.583 190.259,223.922 190.817,224.848 191.960 M238.557 191.433 C 238.691 191.781,238.800 195.291,238.800 199.233 L 238.800 206.400 240.351 206.400 C 242.027 206.400,243.040 207.198,242.651 208.212 C 242.458 208.715,241.821 208.812,239.306 208.717 L 236.200 208.600 236.087 200.600 C 236.024 196.200,236.073 192.195,236.194 191.700 C 236.456 190.634,238.176 190.439,238.557 191.433 M259.125 191.877 C 259.237 192.662,259.048 192.767,257.325 192.877 L 255.400 193.000 255.282 195.676 L 255.165 198.352 256.882 198.476 C 259.469 198.663,259.484 200.536,256.900 200.723 L 255.200 200.846 255.200 203.623 L 255.200 206.400 256.700 206.406 C 260.848 206.423,260.105 208.558,255.896 208.717 L 252.800 208.834 252.800 199.800 L 252.800 190.766 255.900 190.883 C 258.744 190.990,259.010 191.072,259.125 191.877 M220.593 193.700 C 220.470 194.195,220.422 197.210,220.485 200.400 L 220.600 206.200 221.800 206.200 L 223.000 206.200 223.111 200.054 C 223.186 195.862,223.075 193.732,222.762 193.354 C 222.047 192.493,220.844 192.685,220.593 193.700 M163.766 196.900 C 163.304 201.965,163.283 201.783,164.361 201.936 C 165.316 202.071,165.321 202.055,165.064 199.336 C 164.922 197.831,164.804 195.835,164.803 194.900 C 164.798 191.808,164.109 193.136,163.766 196.900 M170.577 218.727 C 170.704 219.127,170.992 226.282,171.217 234.627 C 171.442 242.972,171.798 255.740,172.007 263.000 C 172.652 285.422,173.173 304.520,173.187 306.300 L 173.200 308.000 157.400 308.000 L 141.600 308.000 141.600 263.267 C 141.600 238.663,141.720 218.413,141.867 218.267 C 142.595 217.538,170.341 217.983,170.577 218.727 M219.269 219.600 C 219.435 220.370,219.769 222.440,220.011 224.200 C 220.254 225.960,220.609 228.480,220.799 229.800 C 220.990 231.120,221.350 233.640,221.600 235.400 C 221.850 237.160,222.229 239.770,222.443 241.200 C 222.656 242.630,223.004 245.015,223.216 246.500 C 223.427 247.985,223.773 250.415,223.984 251.900 C 224.196 253.385,224.544 255.770,224.757 257.200 C 224.971 258.630,225.350 261.240,225.600 263.000 C 225.850 264.760,226.210 267.280,226.400 268.600 C 226.590 269.920,226.939 272.435,227.175 274.190 C 227.833 279.092,227.578 278.800,231.203 278.800 C 232.936 278.800,234.436 278.665,234.538 278.500 C 234.760 278.140,234.073 262.005,232.736 236.200 C 232.452 230.700,232.214 224.400,232.209 222.200 L 232.200 218.200 245.200 218.200 L 258.200 218.200 258.302 263.100 L 258.403 308.000 232.018 308.000 L 205.632 308.000 205.244 306.500 C 205.031 305.675,204.649 303.920,204.396 302.600 C 204.142 301.280,203.784 299.480,203.600 298.600 C 203.138 296.393,202.594 293.629,201.200 286.400 C 199.806 279.171,199.262 276.407,198.800 274.200 C 198.616 273.320,198.256 271.520,198.000 270.200 C 197.744 268.880,197.384 267.080,197.200 266.200 C 197.016 265.320,196.653 263.520,196.394 262.200 C 196.135 260.880,195.757 258.990,195.555 258.000 C 195.352 257.010,194.650 253.410,193.995 250.000 C 192.642 242.954,192.080 240.093,191.600 237.800 C 191.416 236.920,191.056 235.120,190.800 233.800 C 190.544 232.480,190.182 230.680,189.994 229.800 C 188.905 224.686,188.212 219.028,188.599 218.402 C 188.768 218.129,193.906 218.026,203.910 218.095 L 218.967 218.200 219.269 219.600 " stroke="none" fill="#fbfbfb" fill-rule="evenodd"></path></g></svg>